<svg width="651" height="651" viewBox="0 0 651 651" fill="none" xmlns="http://www.w3.org/2000/svg">
<path d="M327.401 31V7.72727H341.356V10.2273H330.22V18.0909H340.311V20.5909H330.22V31H327.401Z" fill="#1A1A1A"/>
<path d="M366.209 33.8469L368.535 16.5481L371.103 16.8935L370.752 19.5063L370.932 19.5305C371.362 18.717 372.026 18.0993 372.924 17.6773C373.822 17.2552 374.789 17.1139 375.825 17.2533C376.02 17.2795 376.263 17.3161 376.555 17.363C376.847 17.4099 377.067 17.4509 377.215 17.4861L376.852 20.1891C376.765 20.1544 376.563 20.0929 376.246 20.0044C375.938 19.9094 375.607 19.8382 375.254 19.7908C374.413 19.6777 373.639 19.7531 372.93 20.0172C372.231 20.2747 371.648 20.6855 371.182 21.2497C370.725 21.8074 370.444 22.4766 370.339 23.2575L368.867 34.2044L366.209 33.8469Z" fill="#1A1A1A"/>
<path d="M411.613 44.1735C409.991 43.7291 408.69 42.9878 407.71 41.9495C406.739 40.9059 406.113 39.6505 405.832 38.1831C405.559 36.7104 405.66 35.1118 406.132 33.3875C406.604 31.6631 407.335 30.2294 408.323 29.0864C409.321 27.938 410.488 27.15 411.822 26.7222C413.166 26.2892 414.598 26.2808 416.118 26.6971C416.995 26.9373 417.821 27.3206 418.595 27.847C419.37 28.3735 420.018 29.0616 420.54 29.9113C421.063 30.7537 421.386 31.769 421.508 32.9572C421.63 34.1453 421.476 35.5249 421.046 37.0958L420.746 38.1918L407.769 34.6371L408.382 32.4013L418.728 35.2354C418.988 34.2856 419.03 33.386 418.854 32.5366C418.686 31.6893 418.314 30.955 417.737 30.3337C417.169 29.7145 416.417 29.2768 415.482 29.0206C414.451 28.7384 413.49 28.75 412.597 29.0553C411.714 29.3553 410.96 29.8557 410.336 30.5567C409.712 31.2576 409.273 32.0721 409.019 33L408.61 34.4906C408.262 35.7619 408.186 36.8997 408.382 37.9039C408.588 38.9027 409.022 39.7404 409.685 40.4169C410.35 41.0861 411.205 41.5638 412.25 41.85C412.929 42.0361 413.569 42.1092 414.169 42.0694C414.779 42.0242 415.337 41.863 415.845 41.5859C416.355 41.3014 416.8 40.8969 417.179 40.3724L419.486 41.7584C418.991 42.5339 418.344 43.1581 417.547 43.6309C416.752 44.0965 415.849 44.3832 414.837 44.491C413.828 44.5915 412.753 44.4857 411.613 44.1735Z" fill="#1A1A1A"/>
<path d="M448.274 58.1754C446.726 57.5189 445.535 56.6108 444.702 55.4511C443.879 54.2874 443.426 52.9597 443.342 51.4679C443.269 49.972 443.581 48.4011 444.279 46.7551C444.977 45.1091 445.892 43.7855 447.024 42.7845C448.167 41.7793 449.427 41.1538 450.807 40.9078C452.197 40.6577 453.617 40.8403 455.068 41.4554C455.905 41.8103 456.672 42.3003 457.37 42.9253C458.068 43.5503 458.618 44.3186 459.022 45.2303C459.428 46.1349 459.613 47.1842 459.575 48.378C459.538 49.5719 459.202 50.9186 458.566 52.4181L458.122 53.4643L445.735 48.2118L446.64 46.0776L456.516 50.2654C456.901 49.3587 457.062 48.4727 457.001 47.6075C456.947 46.7453 456.676 45.9679 456.188 45.2755C455.707 44.586 455.02 44.0519 454.127 43.6734C453.144 43.2564 452.19 43.1397 451.264 43.3233C450.349 43.5028 449.535 43.8984 448.823 44.5099C448.111 45.1214 447.567 45.8701 447.192 46.7559L446.589 48.1787C446.074 49.3923 445.847 50.5097 445.908 51.5311C445.978 52.5485 446.297 53.4366 446.864 54.1954C447.434 54.9472 448.217 55.5346 449.215 55.9575C449.863 56.2326 450.488 56.3903 451.088 56.4308C451.698 56.4673 452.273 56.382 452.813 56.175C453.356 55.961 453.851 55.6194 454.297 55.1502L456.398 56.8312C455.804 57.5338 455.08 58.0663 454.227 58.4286C453.377 58.7841 452.444 58.9478 451.427 58.9199C450.413 58.885 449.362 58.6368 448.274 58.1754Z" fill="#1A1A1A"/>
<path d="M490.798 54.2398L478.938 74.2637L476.63 72.897L488.491 52.8731L490.798 54.2398Z" fill="#1A1A1A"/>
<path d="M512.66 98.813C511.792 98.1276 511.133 97.342 510.684 96.4562C510.239 95.5646 510.056 94.6423 510.132 93.6894C510.214 92.7305 510.607 91.8052 511.311 90.9133C511.931 90.1285 512.588 89.6144 513.282 89.3711C513.981 89.1217 514.699 89.0616 515.437 89.1906C516.175 89.3197 516.91 89.5623 517.642 89.9185C518.385 90.2735 519.108 90.6606 519.809 91.0797C520.726 91.63 521.465 92.0826 522.024 92.4376C522.594 92.7913 523.052 92.9937 523.398 93.0448C523.75 93.1005 524.059 92.9589 524.327 92.62L524.383 92.5487C525.078 91.6688 525.377 90.7949 525.281 89.9271C525.19 89.0639 524.66 88.2497 523.691 87.4844C522.686 86.691 521.725 86.2888 520.807 86.2781C519.889 86.2673 519.116 86.4201 518.49 86.7364L517.056 84.4454C518.07 83.8947 519.057 83.6223 520.018 83.6281C520.989 83.6326 521.902 83.822 522.755 84.1964C523.618 84.5696 524.395 85.0285 525.085 85.5731C525.525 85.9205 525.988 86.3731 526.474 86.9309C526.971 87.4874 527.36 88.1374 527.642 88.881C527.929 89.6293 527.995 90.4684 527.84 91.3981C527.685 92.3279 527.178 93.3368 526.319 94.4248L519.192 103.45L517.087 101.788L518.552 99.9329L518.445 99.8484C518.068 100.033 517.579 100.163 516.978 100.239C516.378 100.315 515.707 100.254 514.966 100.055C514.225 99.8562 513.457 99.4422 512.66 98.813ZM514.474 97.1759C515.306 97.8332 516.137 98.2238 516.966 98.3475C517.801 98.4759 518.568 98.3965 519.268 98.1093C519.974 97.8268 520.552 97.4002 521.003 96.8294L522.524 94.9031C522.35 94.9397 522.077 94.8829 521.703 94.7326C521.34 94.5811 520.937 94.3831 520.493 94.1386C520.059 93.8929 519.639 93.6482 519.233 93.4047C518.838 93.1599 518.515 92.9632 518.266 92.8145C517.662 92.4539 517.06 92.1661 516.457 91.951C515.865 91.7347 515.299 91.669 514.759 91.7541C514.23 91.8379 513.754 92.1473 513.331 92.6824C512.754 93.4137 512.588 94.1803 512.833 94.9821C513.089 95.7826 513.636 96.5139 514.474 97.1759Z" fill="#1A1A1A"/>
<path d="M547.272 116.447L539.724 123.747L537.86 121.819L550.407 109.685L552.208 111.547L550.247 113.443L550.405 113.607C551.327 113.285 552.271 113.236 553.237 113.461C554.208 113.681 555.152 114.265 556.068 115.212C556.89 116.062 557.435 116.974 557.702 117.948C557.975 118.917 557.932 119.918 557.572 120.951C557.217 121.979 556.506 123.01 555.439 124.042L547.466 131.752L545.602 129.824L553.443 122.24C554.429 121.287 554.949 120.289 555.004 119.245C555.065 118.196 554.663 117.225 553.799 116.332C553.204 115.716 552.539 115.295 551.803 115.069C551.073 114.847 550.318 114.846 549.537 115.063C548.757 115.28 548.002 115.742 547.272 116.447Z" fill="#1A1A1A"/>
<path d="M566.958 157.88C565.988 156.563 565.463 155.199 565.384 153.789C565.305 152.379 565.623 151.016 566.337 149.7C567.051 148.383 568.11 147.208 569.513 146.174C570.94 145.123 572.392 144.457 573.871 144.177C575.359 143.899 576.76 144.005 578.073 144.497C579.396 144.99 580.525 145.871 581.459 147.139C582.187 148.127 582.66 149.153 582.879 150.215C583.097 151.278 583.063 152.305 582.777 153.296C582.492 154.288 581.955 155.168 581.166 155.937L579.576 153.778C580.095 153.142 580.392 152.358 580.468 151.426C580.555 150.497 580.248 149.556 579.547 148.605C578.927 147.763 578.163 147.187 577.257 146.876C576.361 146.567 575.386 146.528 574.333 146.758C573.29 146.99 572.238 147.497 571.176 148.279C570.091 149.079 569.271 149.946 568.718 150.881C568.169 151.822 567.903 152.771 567.921 153.727C567.943 154.689 568.269 155.597 568.898 156.451C569.311 157.012 569.784 157.45 570.316 157.763C570.849 158.077 571.414 158.257 572.014 158.305C572.614 158.352 573.219 158.255 573.83 158.011L575.421 160.17C574.502 160.659 573.532 160.908 572.512 160.916C571.503 160.926 570.514 160.681 569.543 160.182C568.584 159.684 567.722 158.917 566.958 157.88Z" fill="#1A1A1A"/>
<path d="M587.187 191.772C586.378 190.298 586.007 188.847 586.072 187.42C586.147 185.997 586.614 184.674 587.473 183.452C588.343 182.232 589.561 181.193 591.129 180.334C592.697 179.475 594.235 179.003 595.744 178.919C597.264 178.838 598.641 179.129 599.876 179.791C601.122 180.456 602.123 181.479 602.881 182.861C603.317 183.658 603.616 184.518 603.776 185.441C603.936 186.364 603.892 187.308 603.644 188.274C603.402 189.236 602.897 190.173 602.128 191.087C601.359 192.001 600.26 192.849 598.832 193.632L597.835 194.178L591.369 182.379L593.402 181.265L598.557 190.673C599.421 190.199 600.097 189.604 600.585 188.887C601.077 188.177 601.346 187.399 601.392 186.553C601.442 185.714 601.234 184.869 600.768 184.019C600.255 183.082 599.578 182.399 598.738 181.969C597.908 181.543 597.024 181.349 596.087 181.388C595.149 181.427 594.258 181.677 593.415 182.14L592.059 182.882C590.903 183.516 590.033 184.252 589.447 185.091C588.872 185.933 588.572 186.828 588.546 187.775C588.528 188.718 588.779 189.665 589.299 190.615C589.638 191.232 590.03 191.743 590.476 192.147C590.932 192.553 591.436 192.843 591.989 193.015C592.547 193.184 593.147 193.223 593.788 193.131L594.395 195.752C593.494 195.935 592.596 195.905 591.702 195.661C590.814 195.413 589.98 194.963 589.2 194.311C588.426 193.655 587.755 192.809 587.187 191.772Z" fill="#1A1A1A"/>
<path d="M607.683 221.813L607.81 221.764C609.166 221.258 610.295 220.986 611.197 220.947C612.1 220.908 612.894 221.04 613.579 221.345C614.265 221.649 614.949 222.067 615.633 222.599C616.048 222.918 616.493 223.177 616.968 223.376C617.449 223.572 617.956 223.677 618.489 223.691C619.025 223.712 619.572 223.615 620.131 223.4C620.823 223.133 621.362 222.739 621.746 222.218C622.129 221.697 622.354 221.111 622.42 220.46C622.486 219.81 622.391 219.152 622.135 218.488C621.912 217.908 621.577 217.396 621.13 216.951C620.682 216.506 620.131 216.203 619.476 216.041C618.821 215.879 618.066 215.931 617.21 216.196L616.181 213.523C617.404 213.117 618.553 213.032 619.626 213.268C620.702 213.511 621.646 214.012 622.458 214.771C623.272 215.537 623.9 216.493 624.341 217.638C624.82 218.882 624.989 220.059 624.849 221.169C624.71 222.286 624.307 223.261 623.638 224.095C622.971 224.936 622.086 225.569 620.984 225.994C620.206 226.294 619.456 226.444 618.734 226.446C618.015 226.455 617.323 226.332 616.656 226.078C615.993 225.83 615.35 225.468 614.729 224.993C614.1 224.521 613.498 224.181 612.923 223.972C612.354 223.761 611.744 223.683 611.092 223.739C610.44 223.796 609.673 223.986 608.791 224.309L608.663 224.358L607.683 221.813ZM601.928 225.588C601.727 225.065 601.741 224.544 601.971 224.025C602.202 223.506 602.579 223.146 603.102 222.944C603.625 222.743 604.146 222.757 604.665 222.988C605.184 223.218 605.544 223.595 605.746 224.118C605.947 224.641 605.933 225.162 605.702 225.681C605.472 226.2 605.095 226.56 604.572 226.762C604.226 226.895 603.874 226.929 603.516 226.864C603.16 226.806 602.839 226.666 602.55 226.445C602.272 226.227 602.064 225.942 601.928 225.588Z" fill="#1A1A1A"/>
<path d="M572.071 484.916L591.687 497.438L584.178 509.201L582.071 507.855L588.063 498.469L581.435 494.237L576.006 502.743L573.898 501.398L579.328 492.892L570.554 487.291L572.071 484.916Z" fill="#1A1A1A"/>
<path d="M547.137 529.102L555.017 535.764L553.285 537.812L539.956 526.543L541.688 524.495L543.944 526.402L544.061 526.263C543.648 525.379 543.484 524.406 543.567 523.346C543.656 522.29 544.126 521.259 544.977 520.252C545.681 519.419 546.489 518.833 547.402 518.493C548.32 518.158 549.306 518.118 550.359 518.374C551.419 518.635 552.515 519.244 553.649 520.203L562.119 527.364L560.387 529.412L552.056 522.368C551.084 521.547 550.079 521.163 549.041 521.218C547.998 521.278 547.117 521.734 546.398 522.584C545.967 523.093 545.66 523.721 545.475 524.468C545.285 525.22 545.308 526.003 545.543 526.817C545.773 527.636 546.304 528.398 547.137 529.102Z" fill="#1A1A1A"/>
<path d="M534.947 563.229L519.336 545.969L521.325 544.17L536.936 561.43L534.947 563.229Z" fill="#1A1A1A"/>
<path d="M501.324 589.039L488.153 569.852L490.364 568.334L503.535 587.521L501.324 589.039Z" fill="#1A1A1A"/>
<path d="M457.555 607.158L456.53 605.129L464.604 601.05L465.629 603.078L457.555 607.158ZM465.162 607.999L462.768 609.209L455.265 594.361C454.923 593.684 454.569 593.227 454.202 592.988C453.832 592.759 453.462 592.666 453.093 592.708C452.721 592.76 452.359 592.875 452.007 593.053C451.743 593.186 451.534 593.309 451.378 593.422C451.226 593.541 451.105 593.636 451.014 593.708L449.44 591.804C449.572 591.661 449.768 591.486 450.028 591.278C450.284 591.063 450.636 590.843 451.082 590.618C451.758 590.276 452.494 590.087 453.29 590.049C454.079 590.015 454.837 590.188 455.564 590.568C456.284 590.951 456.873 591.596 457.331 592.502L465.162 607.999Z" fill="#1A1A1A"/>
<path d="M420.213 603.281L425.939 619.77L423.406 620.65L417.68 604.161L420.213 603.281ZM425.605 622.966C426.099 622.794 426.583 622.814 427.058 623.027C427.525 623.241 427.841 623.585 428.005 624.057C428.169 624.529 428.134 624.995 427.9 625.453C427.659 625.913 427.292 626.229 426.798 626.401C426.304 626.572 425.823 626.551 425.356 626.336C424.881 626.124 424.562 625.782 424.398 625.309C424.234 624.837 424.272 624.371 424.513 623.91C424.747 623.452 425.111 623.137 425.605 622.966Z" fill="#1A1A1A"/>
<path d="M382.276 613.441L385.752 630.546L383.213 631.062L382.67 628.389L382.447 628.435C382.277 629.42 381.845 630.246 381.154 630.912C380.463 631.586 379.561 632.036 378.448 632.263C377.319 632.492 376.328 632.427 375.474 632.067C374.614 631.716 373.88 631.127 373.271 630.3L373.093 630.336C372.835 631.308 372.32 632.144 371.55 632.841C370.781 633.546 369.784 634.024 368.559 634.273C367.03 634.583 365.682 634.359 364.514 633.599C363.349 632.846 362.561 631.464 362.152 629.452L359.826 618.004L362.454 617.47L364.78 628.918C365.037 630.18 365.566 631.012 366.366 631.413C367.167 631.815 368.035 631.921 368.97 631.731C370.173 631.486 371.031 630.933 371.543 630.071C372.058 629.217 372.203 628.236 371.978 627.13L369.714 615.994L372.387 615.451L374.768 627.166C374.966 628.139 375.44 628.858 376.192 629.323C376.945 629.796 377.82 629.932 378.814 629.73C379.497 629.591 380.099 629.279 380.619 628.795C381.131 628.312 381.504 627.71 381.736 626.991C381.963 626.28 381.991 625.505 381.82 624.666L379.648 613.975L382.276 613.441Z" fill="#1A1A1A"/>
<path d="M335.996 618.58C337.674 618.467 339.146 618.741 340.413 619.4C341.672 620.067 342.676 621.048 343.423 622.342C344.163 623.644 344.593 625.187 344.712 626.971C344.832 628.755 344.612 630.349 344.053 631.753C343.487 633.165 342.644 634.292 341.523 635.134C340.396 635.984 339.046 636.461 337.473 636.567C336.566 636.627 335.661 636.536 334.756 636.293C333.851 636.05 333.013 635.612 332.242 634.981C331.472 634.356 330.834 633.503 330.328 632.421C329.823 631.339 329.516 629.985 329.407 628.36L329.331 627.226L342.756 626.327L342.911 628.64L332.207 629.357C332.273 630.339 332.528 631.203 332.973 631.948C333.41 632.693 334.003 633.264 334.751 633.662C335.491 634.061 336.345 634.228 337.313 634.163C338.378 634.091 339.283 633.765 340.026 633.184C340.762 632.611 341.31 631.891 341.669 631.024C342.029 630.157 342.177 629.244 342.112 628.284L342.009 626.742C341.921 625.426 341.62 624.327 341.105 623.442C340.583 622.566 339.898 621.917 339.05 621.496C338.202 621.082 337.238 620.911 336.157 620.983C335.454 621.03 334.826 621.171 334.272 621.406C333.711 621.648 333.236 621.984 332.847 622.412C332.459 622.848 332.171 623.376 331.985 623.996L329.352 623.443C329.565 622.548 329.971 621.747 330.569 621.039C331.167 620.338 331.926 619.771 332.846 619.337C333.767 618.911 334.817 618.659 335.996 618.58Z" fill="#1A1A1A"/>
<path d="M300.119 624.527L300.11 624.663C299.998 626.105 299.77 627.244 299.426 628.079C299.081 628.914 298.627 629.578 298.062 630.072C297.498 630.566 296.83 631.011 296.059 631.407C295.595 631.649 295.173 631.944 294.793 632.29C294.412 632.645 294.104 633.061 293.867 633.538C293.622 634.015 293.48 634.552 293.44 635.15C293.39 635.89 293.521 636.545 293.832 637.112C294.144 637.68 294.58 638.13 295.143 638.464C295.705 638.798 296.341 638.988 297.052 639.036C297.672 639.077 298.278 638.989 298.869 638.77C299.461 638.552 299.968 638.18 300.39 637.654C300.813 637.128 301.084 636.421 301.204 635.533L304.062 635.724C303.915 637.005 303.509 638.083 302.843 638.957C302.169 639.83 301.318 640.476 300.288 640.893C299.25 641.309 298.119 641.476 296.894 641.394C295.564 641.305 294.425 640.963 293.478 640.368C292.523 639.773 291.808 638.996 291.333 638.038C290.851 637.079 290.649 636.011 290.728 634.831C290.783 634 290.962 633.256 291.264 632.601C291.559 631.945 291.962 631.368 292.474 630.871C292.978 630.373 293.576 629.943 294.268 629.579C294.961 629.208 295.524 628.805 295.955 628.371C296.386 627.944 296.713 627.423 296.937 626.808C297.16 626.193 297.311 625.417 297.389 624.48L297.398 624.344L300.119 624.527ZM299.117 617.717C299.676 617.755 300.143 617.987 300.517 618.414C300.89 618.842 301.059 619.335 301.021 619.895C300.984 620.454 300.751 620.921 300.324 621.294C299.896 621.668 299.403 621.836 298.844 621.799C298.284 621.761 297.818 621.529 297.444 621.102C297.07 620.674 296.902 620.181 296.939 619.621C296.964 619.251 297.081 618.917 297.291 618.62C297.493 618.322 297.756 618.089 298.078 617.921C298.393 617.76 298.739 617.692 299.117 617.717Z" fill="#1A1A1A"/>
<path d="M76.4516 481.474L56.8352 493.996L55.3188 491.621L72.828 480.444L67.0069 471.325L69.1141 469.98L76.4516 481.474Z" fill="#1A1A1A"/>
<path d="M55.2188 440.44C55.9267 441.966 56.2007 443.438 56.0407 444.857C55.8706 446.272 55.3161 447.561 54.3772 448.723C53.4282 449.882 52.1429 450.837 50.5211 451.59C48.8993 452.342 47.3328 452.71 45.8217 452.693C44.3004 452.672 42.9456 452.291 41.7573 451.548C40.5589 450.801 39.628 449.713 38.9647 448.283C38.5821 447.459 38.3416 446.581 38.2434 445.649C38.1452 444.718 38.2522 443.778 38.5646 442.832C38.87 441.888 39.437 440.986 40.2654 440.126C41.0938 439.265 42.2467 438.492 43.7242 437.807L44.7549 437.328L50.4184 449.533L48.3156 450.509L43.8001 440.778C42.9068 441.193 42.1926 441.741 41.6575 442.424C41.1192 443.099 40.7988 443.858 40.6963 444.699C40.5906 445.533 40.7418 446.39 41.15 447.269C41.5996 448.238 42.2292 448.965 43.0387 449.45C43.8381 449.93 44.7069 450.183 45.6451 450.207C46.5833 450.231 47.4887 450.04 48.3614 449.635L49.7633 448.985C50.959 448.43 51.877 447.753 52.5171 446.955C53.1472 446.153 53.5065 445.281 53.5951 444.338C53.6767 443.398 53.4895 442.437 53.0335 441.454C52.737 440.815 52.3798 440.279 51.9619 439.847C51.534 439.411 51.0503 439.088 50.5107 438.879C49.9642 438.673 49.3683 438.595 48.7228 438.644L48.2919 435.988C49.2039 435.865 50.0977 435.956 50.9735 436.259C51.8424 436.566 52.6446 437.07 53.3799 437.773C54.1084 438.479 54.7213 439.368 55.2188 440.44Z" fill="#1A1A1A"/>
<path d="M25.1434 408.422L27.3141 407.749L29.9941 416.388L27.8234 417.061L25.1434 408.422ZM23.0482 415.782L22.2537 413.221L38.1431 408.292C38.8667 408.068 39.3768 407.794 39.6735 407.472C39.9607 407.145 40.1142 406.796 40.1339 406.425C40.1442 406.049 40.091 405.673 39.9743 405.297C39.8868 405.015 39.8005 404.788 39.7154 404.616C39.6231 404.446 39.5493 404.31 39.4939 404.209L41.6332 402.974C41.7522 403.127 41.8925 403.349 42.0542 403.64C42.223 403.929 42.3815 404.312 42.5297 404.79C42.7541 405.513 42.8185 406.271 42.7229 407.062C42.625 407.846 42.3283 408.564 41.833 409.218C41.3354 409.864 40.6019 410.337 39.6323 410.638L23.0482 415.782Z" fill="#1A1A1A"/>
<path d="M11.8351 373.785L13.852 373.445C14.4646 373.342 15.1371 373.343 15.8697 373.45C16.5935 373.551 17.3162 373.76 18.038 374.076C18.751 374.386 19.3969 374.799 19.9758 375.316L19.0524 376.947C18.3007 376.59 17.5336 376.3 16.751 376.079C15.9597 375.851 15.1494 375.808 14.3202 375.947L12.2585 376.295L11.8351 373.785Z" fill="#1A1A1A"/>
<path d="M17.5178 321.242L18.2797 323.627C17.8835 323.791 17.501 324.028 17.1323 324.336C16.7558 324.636 16.4509 325.041 16.2178 325.549C15.9846 326.057 15.8811 326.701 15.9072 327.481C15.9429 328.548 16.2187 329.43 16.7346 330.125C17.2427 330.813 17.8716 331.144 18.6212 331.119C19.2875 331.097 19.8056 330.837 20.1755 330.34C20.5455 329.842 20.842 329.074 21.065 328.036L21.6144 325.425C21.9408 323.853 22.4812 322.671 23.2355 321.88C23.9822 321.09 24.9651 320.674 26.1841 320.634C27.1835 320.6 28.0866 320.858 28.8933 321.407C29.6997 321.949 30.3472 322.723 30.8356 323.73C31.3241 324.737 31.591 325.918 31.6363 327.273C31.6958 329.053 31.3589 330.538 30.6256 331.73C29.8922 332.922 28.7888 333.698 27.3151 334.058L26.5941 331.535C27.5248 331.261 28.2137 330.78 28.6606 330.09C29.1072 329.393 29.3122 328.495 29.2755 327.398C29.2337 326.148 28.9356 325.165 28.381 324.449C27.8186 323.725 27.1626 323.375 26.413 323.4C25.8073 323.42 25.3071 323.649 24.9124 324.087C24.5102 324.525 24.2215 325.186 24.0464 326.072L23.4622 329.002C23.137 330.612 22.5895 331.805 21.8195 332.581C21.0418 333.35 20.0509 333.755 18.8471 333.795C17.8628 333.828 16.9828 333.581 16.2072 333.053C15.4313 332.518 14.8115 331.777 14.3478 330.83C13.8838 329.875 13.6313 328.785 13.5903 327.558C13.5326 325.832 13.8658 324.464 14.5901 323.454C15.3141 322.437 16.29 321.7 17.5178 321.242Z" fill="#1A1A1A"/>
<path d="M24.5391 243.781L26.7499 244.308L24.653 253.107L22.4422 252.58L24.5391 243.781ZM18.9855 249.046L19.6072 246.438L35.7903 250.294C36.5273 250.47 37.1055 250.495 37.5249 250.369C37.9386 250.234 38.2486 250.012 38.4546 249.703C38.6551 249.384 38.801 249.034 38.8923 248.65C38.9608 248.363 39.0022 248.124 39.0167 247.932C39.0237 247.739 39.0294 247.585 39.0336 247.469L41.5035 247.497C41.5277 247.69 41.5352 247.952 41.526 248.285C41.5242 248.62 41.4653 249.03 41.3494 249.516C41.1738 250.253 40.8432 250.938 40.3577 251.57C39.874 252.194 39.2526 252.661 38.4934 252.971C37.736 253.274 36.8636 253.307 35.8761 253.072L18.9855 249.046Z" fill="#1A1A1A"/>
<path d="M53.8364 213.121C53.4389 214.154 52.8837 215.015 52.1709 215.707C51.451 216.396 50.6246 216.845 49.6917 217.054C48.7517 217.26 47.7515 217.159 46.6911 216.75C45.7579 216.391 45.0723 215.916 44.6341 215.325C44.189 214.731 43.9187 214.063 43.8233 213.32C43.7279 212.577 43.7418 211.803 43.8651 210.998C43.9841 210.183 44.1397 209.379 44.3321 208.584C44.586 207.545 44.7996 206.706 44.9729 206.067C45.1418 205.417 45.1994 204.92 45.1457 204.575C45.0948 204.222 44.8678 203.968 44.4648 203.813L44.38 203.78C43.3337 203.377 42.4104 203.351 41.6102 203.7C40.8127 204.042 40.192 204.79 39.7482 205.942C39.288 207.137 39.1888 208.174 39.4506 209.054C39.7123 209.934 40.0871 210.627 40.5747 211.131L38.8115 213.18C37.9851 212.374 37.4324 211.512 37.1532 210.593C36.8697 209.664 36.7804 208.736 36.8853 207.811C36.9858 206.875 37.194 205.997 37.5098 205.177C37.7113 204.654 38.0063 204.078 38.395 203.448C38.7793 202.809 39.2848 202.244 39.9116 201.755C40.5412 201.259 41.3229 200.947 42.2569 200.82C43.1908 200.692 44.3046 200.878 45.5984 201.376L56.3299 205.509L55.3661 208.012L53.1604 207.162L53.1114 207.289C53.3995 207.595 53.6688 208.024 53.9193 208.575C54.1698 209.126 54.3098 209.785 54.3394 210.551C54.3689 211.317 54.2013 212.174 53.8364 213.121ZM51.7354 211.874C52.1165 210.884 52.2434 209.975 52.116 209.147C51.9913 208.311 51.6881 207.602 51.2065 207.018C50.7275 206.428 50.1488 206.002 49.4701 205.741L47.1795 204.859C47.2659 205.014 47.2927 205.292 47.2599 205.693C47.2228 206.085 47.1532 206.529 47.0513 207.026C46.945 207.512 46.8357 207.986 46.7235 208.446C46.6069 208.896 46.5145 209.262 46.4464 209.545C46.2807 210.228 46.1844 210.889 46.1575 211.528C46.1262 212.157 46.2312 212.717 46.4724 213.208C46.7094 213.689 47.1459 214.052 47.7822 214.297C48.6518 214.632 49.4331 214.563 50.1263 214.091C50.8151 213.61 51.3514 212.871 51.7354 211.874Z" fill="#1A1A1A"/>
<path d="M49.2234 168.7L69.6324 179.885L68.3436 182.237L47.9346 171.052L49.2234 168.7Z" fill="#1A1A1A"/>
<path d="M86.0251 143.466L83.3268 141.535L83.6504 141.096L81.9225 130.337L83.8908 127.666L85.688 139.096L85.5532 139.279L86.0251 143.466ZM89.6654 149.254L70.9292 135.449L72.52 133.29L91.2562 147.095L89.6654 149.254ZM96.2443 140.325L85.247 140.691L84.879 138.049L98.2665 137.58L96.2443 140.325Z" fill="#1A1A1A"/>
</svg>
